<?xml version="1.0" encoding="UTF-8"?><svg id="Layer_1" xmlns="http://www.w3.org/2000/svg" viewBox="0 0 84.52 54.02"><rect x="24.75" y="13.06" width="36.49" height="2.89" rx="1.45" ry="1.45"/><path d="M56.6,17.86h-10.58s-.03,0,0,.04h-1.84v8.47c0,.67-.56,1.43-1.31,1.43s-1.03-1.26-1.03-1.26v-8.66h-2.1s-.06,0-.05-.02h-10.29c-.8,0-1.45.65-1.45,1.45s.65,1.45,1.45,1.45h9.66v1.98h-6.39c-.8,0-1.45.65-1.45,1.45s.65,1.45,1.45,1.45h6.39v1.04s.62,3.58,3.86,3.58,3.74-3.07,3.74-3.07v-1.55s6.65,0,6.65,0c.8,0,1.45-.65,1.45-1.45s-.65-1.45-1.45-1.45h-6.68v-1.98s9.96,0,9.96,0c.8,0,1.45-.65,1.45-1.45s-.65-1.45-1.45-1.45Z"/><path d="M13.2,34.11c0-.11.05-.21.14-.29s.21-.12.35-.12.26.04.36.12c.1.08.15.17.15.29v3.31c0,.23.04.43.11.62.08.18.18.34.32.46.14.13.31.22.5.29s.41.1.66.1.47-.04.68-.11c.2-.07.38-.18.52-.31s.25-.29.33-.48c.08-.19.12-.39.12-.61v-3.27c0-.11.05-.21.15-.29.1-.08.22-.12.36-.12.07,0,.13.01.19.03.06.02.11.05.16.09.05.04.08.08.11.13.03.05.04.1.04.16v3.29c0,.33-.06.63-.18.91-.12.28-.3.53-.53.73-.23.21-.51.37-.84.49-.33.12-.71.18-1.13.18s-.77-.06-1.09-.18c-.32-.12-.59-.28-.81-.48s-.39-.44-.5-.71-.17-.56-.17-.86v-3.37Z"/><path d="M19.57,34.1c0-.11.05-.21.14-.28.1-.08.21-.11.34-.11s.25.04.35.11c.1.08.14.17.14.28v4.76h3.07c.14,0,.25.04.34.12.09.08.14.17.14.28,0,.12-.05.21-.14.29-.09.07-.21.11-.34.11h-3.62s0,0,0,0c0,0,0,0,0,0-.12-.02-.22-.06-.29-.13s-.12-.16-.12-.26v-5.17Z"/><path d="M25.27,34.49h-1.72c-.14,0-.25-.04-.34-.12-.09-.08-.14-.17-.14-.28s.05-.21.14-.28c.09-.08.21-.12.34-.12h4.43c.07,0,.13.01.19.03.06.02.11.05.16.09s.08.08.1.13.04.1.04.15c0,.11-.05.21-.14.28-.1.07-.21.11-.35.11h-1.74v4.8c0,.11-.05.21-.14.28-.1.08-.21.12-.35.12s-.25-.04-.34-.12c-.09-.08-.13-.17-.13-.28v-4.8Z"/><path d="M47.06,34.49h-1.72c-.14,0-.25-.04-.34-.12-.09-.08-.14-.17-.14-.28s.05-.21.14-.28c.09-.08.21-.12.34-.12h4.43c.07,0,.13.01.19.03.06.02.11.05.16.09s.08.08.1.13.04.1.04.15c0,.11-.05.21-.14.28-.1.07-.21.11-.35.11h-1.74v4.8c0,.11-.05.21-.14.28-.1.08-.21.12-.35.12s-.25-.04-.34-.12c-.09-.08-.13-.17-.13-.28v-4.8Z"/><path d="M59.49,39.71c-.34,0-.66-.04-.97-.11-.31-.07-.6-.17-.87-.3s-.51-.29-.74-.47c-.22-.18-.41-.39-.57-.61-.16-.22-.28-.46-.37-.72-.09-.26-.13-.52-.13-.8s.04-.52.12-.78c.08-.25.2-.49.35-.71.15-.22.34-.43.56-.62.22-.19.46-.35.73-.49.27-.14.57-.24.89-.32.32-.08.66-.11,1.02-.11.48,0,.94.08,1.39.22.44.15.85.38,1.22.68.1.08.14.18.14.28,0,.05-.01.1-.04.15-.03.05-.06.09-.11.13s-.1.06-.16.09c-.06.02-.12.03-.19.03-.06,0-.12,0-.18-.03-.06-.02-.11-.04-.15-.08-.28-.22-.58-.38-.9-.49-.33-.11-.67-.16-1.02-.16s-.72.06-1.05.17c-.33.11-.61.27-.85.47-.24.2-.44.43-.58.7-.14.27-.21.56-.21.86s.07.58.2.85.32.5.57.7c.24.2.53.36.85.48s.68.18,1.07.18c.36,0,.7-.05,1.01-.15.32-.1.62-.26.89-.49.04-.04.1-.06.16-.08.06-.02.13-.03.19-.03.07,0,.13.01.19.03.06.02.11.05.15.09.04.04.07.08.1.12.02.05.04.1.04.15,0,.11-.05.2-.14.28-.37.3-.78.53-1.22.67-.45.14-.91.22-1.4.22Z"/><path d="M63.23,34.11c0-.11.05-.21.15-.29.1-.08.22-.12.36-.12s.26.04.36.12c.1.08.15.18.15.29v2.36h3.36v-2.36c0-.11.05-.21.15-.29.1-.08.22-.12.36-.12.07,0,.14.01.2.03.06.02.11.05.16.09.05.04.08.08.11.13.03.05.04.1.04.16v5.14c0,.06-.01.11-.04.16-.03.05-.06.09-.11.13-.05.04-.1.06-.16.09-.06.02-.13.03-.2.03-.14,0-.26-.04-.36-.12-.1-.08-.15-.17-.15-.29v-1.95h-3.36v1.95c0,.11-.05.21-.15.29-.1.08-.22.12-.36.12s-.26-.04-.36-.12c-.1-.08-.15-.17-.15-.29v-5.14Z"/><rect x="50.58" y="33.72" width="4.65" height="1.09" rx=".34" ry=".34"/><rect x="50.58" y="36.02" width="4.65" height="1.09" rx=".34" ry=".34"/><rect x="50.58" y="38.49" width="4.65" height="1.09" rx=".34" ry=".34"/><path d="M29.76,34.86s-.68-.05-.68-.58.28-.71.71-.71h3.44s1.93.3,1.93,2.19-1.43,1.84-1.43,1.84c0,0,.68.81,1.21.8s1.01,1.09-.01,1.15-2.67-1.87-2.67-1.87h-2.12v1.24s.05.6-.55.6-.51-.68-.51-.68v-2.05s0-.3.79-.3h3.24s.79,0,.79-.72-.36-.86-.86-.86-3.27-.05-3.27-.05Z"/><path d="M37.02,38.92s-.17.69-.73.47-.17-1.3-.05-1.44,1.44-3.1,2.16-3.98c.19-.23.55-.46,1.09-.46s1.35.6,1.67,1.32,1.67,3.76,1.67,3.76c0,0,.12.61-.32.77s-.98-.9-.98-.9l-1.56-3.34s-.05-.43-.6-.37c-.4.04-2.34,4.16-2.34,4.16Z"/><circle cx="39.44" cy="37.54" r=".89"/></svg>